<svg width="40" height="32" viewBox="0 0 40 32" fill="none" xmlns="http://www.w3.org/2000/svg">
<path fill-rule="evenodd" clip-rule="evenodd" d="M6.8 0.473772C3.506 1.37631 3.2 1.61659 3.2 3.29649C3.2 4.68563 3.09 4.86291 2.2284 4.86291C0.0456001 4.86291 0 5.12782 0 17.7852C0 27.8404 0.086 29.5255 0.6284 30.0731C1.1608 30.6102 2.5676 30.7075 9.8048 30.7075C15.072 30.7075 18.4476 30.8626 18.6 31.1113C18.736 31.3334 19.366 31.5152 20 31.5152C20.634 31.5152 21.264 31.3334 21.4 31.1113C21.5524 30.8626 24.928 30.7075 30.1952 30.7075C37.4324 30.7075 38.8392 30.6102 39.3716 30.0731C39.914 29.5255 40 27.8404 40 17.7852C40 5.12782 39.9544 4.86291 37.7716 4.86291C36.91 4.86291 36.8 4.68563 36.8 3.29649C36.8 1.96186 36.6376 1.66666 35.7 1.29838C32.0456 -0.135999 26.38 -0.41827 22.3576 0.633686C20.2432 1.18692 19.7568 1.18692 17.6424 0.633686C15.0448 -0.0455426 9.0196 -0.134788 6.8 0.473772ZM17.5608 2.57284L19 3.04894L19.106 14.6495L19.2124 26.2501L18.106 25.7777C16.6488 25.155 7.3552 25.1533 5.9 25.7752L4.8 26.2453V14.7606C4.8 3.8259 4.8368 3.2561 5.5724 2.85874C7.7768 1.66747 14.3484 1.51119 17.5608 2.57284ZM33.5608 2.57284L35 3.04894L35.106 14.6495L35.2124 26.2501L34.106 25.7777C32.6488 25.155 23.3552 25.1533 21.9 25.7752L20.8 26.2453V14.7606C20.8 3.8259 20.8368 3.2561 21.5724 2.85874C23.7768 1.66747 30.3484 1.51119 33.5608 2.57284ZM26.88 6.15514C26.0024 7.04113 26.3056 8.45814 27.434 8.74404C28.8276 9.09698 29.794 8.12135 29.4444 6.71443C29.1612 5.57525 27.7576 5.26916 26.88 6.15514ZM24.8 12.1317C24.8 12.67 25.0668 12.9393 25.6 12.9393C26.3468 12.9393 26.4 13.2087 26.4 16.9776V21.0158H28H29.6V16.1699V11.3241H27.2C25.0668 11.3241 24.8 11.4137 24.8 12.1317Z" fill="#FD6200"/>
</svg>
