<svg width="40" height="38" viewBox="0 0 40 38" fill="none" xmlns="http://www.w3.org/2000/svg">
<path fill-rule="evenodd" clip-rule="evenodd" d="M24.3115 0.800463C20.671 2.38353 19.5435 7.38174 21.8198 11.8436L23.0542 14.2633L16.9697 20.3691L10.8852 26.4742L8.6962 24.3371C6.45524 22.1486 4.98487 21.9911 4.26679 23.8615C4.03432 24.4669 4.66979 25.5832 6.05284 26.9999C7.69196 28.678 8.03595 29.3612 7.50905 29.8881C6.98155 30.4156 6.28 30.0923 4.54116 28.521C2.64891 26.8117 2.06595 26.5692 1.09888 27.0866C-0.555585 27.9723 -0.346712 29.3878 1.75854 31.5597C3.35754 33.2095 3.49679 33.6048 2.88138 34.7548C2.31495 35.8133 2.34858 36.2358 3.05604 36.9432C3.54459 37.4324 4.41902 37.666 5.03089 37.4713C5.63509 37.2795 10.6115 32.6353 16.0888 27.1504L26.048 17.1775L28.0949 18.3848C32.0469 20.7166 37.4806 19.7277 39.2218 16.3603C41.9844 11.0193 37.0369 2.53753 29.9789 0.513115C27.3833 -0.231512 26.5909 -0.1908 24.3115 0.800463ZM31.7826 5.72846C35.5954 8.5512 37.2458 13.94 34.7115 15.2959C31.1058 17.2259 24.7157 12.0277 24.7157 7.16461C24.7157 6.23943 25.0479 5.14432 25.4533 4.72952C26.4168 3.74534 29.8313 4.28404 31.7826 5.72846Z" fill="#FD6200"/>
</svg>
